# xmcd
#
# Track frame offsets:
#	150
#	17305
#	34061
#	55693
#	71790
#	95128
#	115251
#	135233
#
# Disc length: 2073
#
# Revision: 1
# Processed by: cddbd v1.5.1PL0 Copyright (c) Steve Scherf et al.
# Submitted via: dBpowerAMP V4.0
# Normalized: r0:TRMNUM
#
DISCID=62081708
DTITLE=R Kelly - The R in R&B Greatest Hits Collection Volume 1
DYEAR=1900
DGENRE=Blues
TTITLE0=Snake 
TTITLE1=Bump N' Grind
TTITLE2=Down Low
TTITLE3=Step In The Name Of Love
TTITLE4=Ghetto Religion
TTITLE5=Gotham City
TTITLE6=Thoi Thoing
TTITLE7=Touched A Dream
EXTD=
EXTT0=
EXTT1=
EXTT2=
EXTT3=
EXTT4=
EXTT5=
EXTT6=
EXTT7=
PLAYORDER=
